<svg xmlns="http://www.w3.org/2000/svg" width="111.342" height="33.98" viewBox="0 0 111.342 33.98"><defs><style>.a{fill:#fff;}</style></defs><g transform="translate(-150 -150)"><g transform="translate(150.657 156.286)"><path class="a" d="M175.04,257.713c0-9.163,7.254-18.031,16.333-18.442a16.937,16.937,0,0,0-3.141-6.026c-7.554,2.683-13.192,12.874-13.192,20.951,0-8.077-5.638-18.267-13.192-20.951a16.939,16.939,0,0,0-3.141,6.026C167.785,239.682,175.04,248.55,175.04,257.713Z" transform="translate(-158.707 -233.244)"/></g><g transform="translate(150 150)"><g transform="translate(40.335 7.747)"><path class="a" d="M687.184,255.51a10.306,10.306,0,0,1,17.493,7.3,10.355,10.355,0,0,1-2.892,7.357,10.126,10.126,0,0,1-7.357,3.117,9.9,9.9,0,0,1-7.441-3.145,10.4,10.4,0,0,1-2.836-7.413A10,10,0,0,1,687.184,255.51Zm7.245,12.832a5.275,5.275,0,0,0,5.195-5.56,5.223,5.223,0,1,0-10.445,0A5.461,5.461,0,0,0,694.428,268.342Z" transform="translate(-684.151 -252.59)"/><path class="a" d="M993.069,257.422v19.964H988.66V257.422Z" transform="translate(-965.666 -257.057)"/><path class="a" d="M1089.345,332.767a5.841,5.841,0,0,1-4.465,1.769,6.84,6.84,0,0,1-4.717-1.769,7.855,7.855,0,0,1-.225-11.54,7.007,7.007,0,0,1,5.026-2.078,5.045,5.045,0,0,1,4.24,1.909v-1.685h4.437v15.078h-4.3Zm-3.482-2.246a3.561,3.561,0,0,0,3.51-3.65,3.665,3.665,0,0,0-3.678-3.791,3.723,3.723,0,1,0,.168,7.441Z" transform="translate(-1047.82 -314.123)"/><path class="a" d="M1329.614,333.764V318.686h4.015v2.022a4.46,4.46,0,0,1,4.1-2.3,4.59,4.59,0,0,1,4.184,2.415c1.572-1.657,2.78-2.415,4.661-2.415,3.4,0,5.307,1.909,5.307,5.419v9.94h-4.324v-8.171c0-2.106-.449-3.06-2.106-3.06-1.685,0-2.583,1.039-2.583,3.06v8.171h-4.352v-8.171c0-2.106-.449-3.06-2.106-3.06-1.685,0-2.583,1.039-2.583,3.06v8.171Z" transform="translate(-1280.874 -313.435)"/></g><g transform="translate(0 16.99)"><path class="a" d="M391.988,375A16.99,16.99,0,0,0,375,391.99,16.99,16.99,0,0,0,391.988,375Z" transform="translate(-358.008 -375)"/><path class="a" d="M150,375a16.99,16.99,0,0,0,16.99,16.99A16.99,16.99,0,0,0,150,375Z" transform="translate(-150 -375)"/></g><g transform="translate(8.065)"><path class="a" d="M265.725,173.669c0-6.463,3.612-15.956,8.925-21.136a16.988,16.988,0,0,0-17.851,0C262.112,157.714,265.725,167.206,265.725,173.669Z" transform="translate(-256.799 -150)"/></g></g></g></svg>