<svg xmlns="http://www.w3.org/2000/svg" width="17.506" height="20.106" viewBox="0 0 17.506 20.106"><defs><style>.a{fill:#fff;}</style></defs><g transform="translate(0)"><path class="a" d="M109.327,16.672V3.066A1.976,1.976,0,0,0,107.4,1.041H95.073a2.426,2.426,0,0,1,.5,1.525v14.1A1.2,1.2,0,0,0,96.8,17.8h5.126V15.645a3.751,3.751,0,0,1-1.1-2.651,3.826,3.826,0,1,1,6.552,2.651V17.8h.925A1.075,1.075,0,0,0,109.327,16.672ZM98.024,4.042H102.4a.375.375,0,1,1,0,.75H98.024a.375.375,0,1,1,0-.75ZM106.9,7.293H98.024a.375.375,0,1,1,0-.75H106.9a.375.375,0,0,1,0,.75Z" transform="translate(-91.822 -0.991)"/><path class="a" d="M28.93.05h-.275V0a1.6,1.6,0,0,0-1.5,1.575v8A1.167,1.167,0,0,0,28.2,10.8h1.951V1.575A1.567,1.567,0,0,0,28.93.05Z" transform="translate(-27.154)"/><circle class="a" cx="3.076" cy="3.076" r="3.076" transform="translate(9.753 8.902)"/><path class="a" d="M253.375,318.171l.05,4.876,1.7-1.275a.425.425,0,0,1,.475,0l1.7,1.275V318.2a3.776,3.776,0,0,1-1.951.55A3.576,3.576,0,0,1,253.375,318.171Z" transform="translate(-242.547 -302.942)"/></g></svg>