<svg xmlns="http://www.w3.org/2000/svg" width="20" height="20" viewBox="0 0 20 20"><defs><style>.a{fill:#fff;}</style></defs><path class="a" d="M2.579,20A2.581,2.581,0,0,1,0,17.422V4.141A2.581,2.581,0,0,1,2.579,1.562h1.8V.625a.625.625,0,0,1,1.25,0v.938h8.75V.625a.625.625,0,1,1,1.25,0v.938h1.8A2.581,2.581,0,0,1,20,4.141V17.422A2.581,2.581,0,0,1,17.422,20ZM1.25,7.07V17.422A1.328,1.328,0,0,0,2.579,18.75H17.422a1.328,1.328,0,0,0,1.328-1.328V7.07a.2.2,0,0,0-.195-.2H1.445A.2.2,0,0,0,1.25,7.07ZM9.628,17.306a.248.248,0,0,1-.266-.281c0-.139,0-.279,0-.418,0-.306-.013-.319-.308-.367a3.86,3.86,0,0,1-1.094-.313c-.272-.133-.3-.2-.223-.485.059-.211.117-.423.182-.632.077-.243.143-.274.367-.157a3.546,3.546,0,0,0,1.214.362,1.485,1.485,0,0,0,.8-.1.62.62,0,0,0,.148-1.087,1.849,1.849,0,0,0-.452-.266A11.111,11.111,0,0,1,8.747,13a1.756,1.756,0,0,1-.994-1.68A1.849,1.849,0,0,1,9.1,9.608c.332-.121.334-.115.336-.461,0-.119,0-.235,0-.352.007-.26.051-.306.311-.314.08,0,.161,0,.241,0,.554,0,.554,0,.556.553,0,.392,0,.394.392.454a3.462,3.462,0,0,1,.861.257.251.251,0,0,1,.162.334c-.071.239-.135.48-.212.717s-.144.257-.359.153a2.757,2.757,0,0,0-1.364-.27,1.05,1.05,0,0,0-.363.075.516.516,0,0,0-.128.917,2.417,2.417,0,0,0,.593.332,10.669,10.669,0,0,1,1.08.489,1.938,1.938,0,0,1,.622,2.947,2.061,2.061,0,0,1-1.074.689.3.3,0,0,0-.261.343c.007.19,0,.381,0,.571a.234.234,0,0,1-.253.265q-.166,0-.333,0Z"/></svg>