<svg xmlns="http://www.w3.org/2000/svg" width="20.439" height="20.098" viewBox="0 0 20.439 20.098"><defs><style>.a{fill:#fff;}</style></defs><path class="a" d="M22.558,18l-1.787,2.457a4.03,4.03,0,0,0,3.259,6.4h.117a4.03,4.03,0,0,0,3.259-6.4L25.618,18Zm1.562,2.725h-.064a.649.649,0,0,0-.205,1.265l.69.23a1.328,1.328,0,0,1-.112,2.553v.721h-.681v-.721a1.33,1.33,0,0,1-1.022-1.291V23.11h.681v.373a.649.649,0,0,0,.649.649h.064a.649.649,0,0,0,.205-1.265l-.69-.23a1.328,1.328,0,0,1,.112-2.553v-.721h.681v.721a1.33,1.33,0,0,1,1.022,1.291l-.681.032v-.032a.649.649,0,0,0-.649-.649Z" transform="translate(-13.868 -12.89)"/><path class="a" d="M25.927,7.428h2.9l.913-3.346a.814.814,0,0,0,.029-.217V3.823A.824.824,0,0,0,28.946,3H27.867a.824.824,0,0,0-.823.823.812.812,0,0,0,.042.259l.622,1.877-.647.214L26.439,4.3a1.488,1.488,0,0,1-.077-.473c0-.048.01-.094.014-.142h-.545a.832.832,0,0,0-.789,1.094Z" transform="translate(-17.165 -3)"/><path class="a" d="M21.757,15.793H20.706A8.468,8.468,0,0,0,18.471,10.7l1.483-1.483-.482-.482-1.484,1.484a8.519,8.519,0,0,0-2.919-1.77L14.71,9.771a7.156,7.156,0,0,1,4.628,6.022h-.988a.681.681,0,1,0,0,1.363h.988A7.153,7.153,0,0,1,12.9,23.593v-.988a.681.681,0,1,0-1.363,0v.988a7.129,7.129,0,0,1-4.374-2.061l0,0A7.13,7.13,0,0,1,5.1,17.155h.988a.681.681,0,0,0,0-1.363H5.1A7.155,7.155,0,0,1,9.637,9.806L9.231,8.587c-.008-.025-.012-.051-.019-.077a8.524,8.524,0,0,0-2.762,1.713L4.966,8.739l-.482.482L5.968,10.7a8.468,8.468,0,0,0-2.235,5.088H2.681a.681.681,0,0,0,0,1.363H3.733a8.473,8.473,0,0,0,2.236,5.088L4.484,23.728l.482.482,1.485-1.485a8.473,8.473,0,0,0,5.088,2.236v1.052a.681.681,0,0,0,1.363,0V24.961a8.473,8.473,0,0,0,5.088-2.236l1.485,1.485.482-.482L18.47,22.243a8.473,8.473,0,0,0,2.236-5.088h1.052a.681.681,0,0,0,0-1.363Z" transform="translate(-2 -6.596)"/></svg>