<svg xmlns="http://www.w3.org/2000/svg" width="15.074" height="20.078" viewBox="0 0 15.074 20.078"><defs><style>.a{fill:#fff;}</style></defs><g transform="translate(8.793 15.053)"><circle class="a" cx="0.628" cy="0.628" r="0.628"/></g><g transform="translate(5.025 8.772)"><circle class="a" cx="0.628" cy="0.628" r="0.628"/></g><path class="a" d="M74.748,4.405A38.484,38.484,0,0,1,71.8.287a.653.653,0,0,0-1.082,0,38.673,38.673,0,0,1-2.947,4.118c-2.083,2.657-4.05,5.167-4.05,8.135a7.537,7.537,0,1,0,15.074,0C78.8,9.572,76.831,7.062,74.748,4.405Zm-5.372,3.11A1.884,1.884,0,1,1,67.493,9.4,1.887,1.887,0,0,1,69.377,7.516Zm-.812,8.61a.628.628,0,1,1-.889-.888l6.281-6.281a.628.628,0,0,1,.889.888Zm4.58,1.44a1.884,1.884,0,1,1,1.884-1.884A1.887,1.887,0,0,1,73.146,17.565Z" transform="translate(-63.724)"/></svg>