<svg xmlns="http://www.w3.org/2000/svg" width="16.626" height="20.104" viewBox="0 0 16.626 20.104"><defs><style>.a{fill:#fff;}</style></defs><path class="a" d="M2.791,74.051.309,78.942A2.848,2.848,0,0,0,1.56,82.77l.1.048c.051-.14.1-.281.162-.418L4.3,76.842Zm0,0" transform="translate(0 -71.143)"/><path class="a" d="M62.945,11.16,57.247,0,52.074,11.574A5.787,5.787,0,0,0,55,19.219q.149.067.3.125a5.8,5.8,0,0,0,3.893.083l.428-.143a5.788,5.788,0,0,0,3.325-8.123Zm-3.213,6.683a.389.389,0,1,1-.355-.692l0,0A4.543,4.543,0,0,0,61.891,13.1a.389.389,0,0,1,.389-.387h0a.389.389,0,0,1,.387.389,5.318,5.318,0,0,1-2.937,4.74Zm0,0" transform="translate(-49.544)"/><path class="a" d="M373.9,452.563h.778v.778H373.9Zm0,0" transform="translate(-359.217 -434.793)"/><path class="a" d="M403.617,412.938h.778v.778h-.778Zm0,0" transform="translate(-387.769 -396.724)"/><path class="a" d="M344.18,492.188h.778v.778h-.778Zm0,0" transform="translate(-330.666 -472.862)"/></svg>