<svg xmlns="http://www.w3.org/2000/svg" width="102.678" height="102.678" viewBox="0 0 102.678 102.678"><defs><style>.a{fill:#00acc6;}</style></defs><path class="a" d="M226.887.956,222.355,18.11a33.886,33.886,0,0,0-10.48,0L207.272.956a51.15,51.15,0,0,1,19.686,0Z" transform="translate(-165.705)"/><path class="a" d="M109.838,31.032a33,33,0,0,0-9.064,5.311L88.276,23.7a50.82,50.82,0,0,1,17.03-9.843Z" transform="translate(-70.573 -11.08)"/><path class="a" d="M35.989,100.774a33,33,0,0,0-5.311,9.064l-17.172-4.6A50.834,50.834,0,0,1,23.42,88.276Z" transform="translate(-10.797 -70.573)"/><path class="a" d="M17.7,217.044a33.978,33.978,0,0,0,.407,5.311l-17.154,4.6a51.15,51.15,0,0,1,0-19.686l17.154,4.461A33.99,33.99,0,0,0,17.7,217.044Z" transform="translate(0 -165.705)"/><path class="a" d="M36.272,324.987,23.7,337.485a50.819,50.819,0,0,1-9.843-17.03l17.172-4.6A33.014,33.014,0,0,0,36.272,324.987Z" transform="translate(-11.08 -252.51)"/><path class="a" d="M109.838,391.624l-4.6,17.172a50.846,50.846,0,0,1-16.959-9.843l12.569-12.569A33.026,33.026,0,0,0,109.838,391.624Z" transform="translate(-70.573 -308.898)"/><path class="a" d="M226.6,438.848a51.151,51.151,0,0,1-19.686,0l4.532-17.154a33.887,33.887,0,0,0,10.48,0Z" transform="translate(-165.422 -337.127)"/><path class="a" d="M337.484,398.67a50.82,50.82,0,0,1-17.03,9.843l-4.6-17.172a33,33,0,0,0,9.064-5.311Z" transform="translate(-252.51 -308.615)"/><path class="a" d="M408.8,320.525a50.846,50.846,0,0,1-9.843,16.959l-12.569-12.569a33,33,0,0,0,5.311-9.064Z" transform="translate(-308.898 -252.51)"/><path class="a" d="M439.8,217.043a50.055,50.055,0,0,1-.956,9.843l-17.154-4.532a33.887,33.887,0,0,0,0-10.48l17.154-4.6A50.173,50.173,0,0,1,439.8,217.043Z" transform="translate(-337.127 -165.704)"/><path class="a" d="M408.513,104.953l-17.172,4.6a33,33,0,0,0-5.311-9.064L398.6,87.923A50.844,50.844,0,0,1,408.513,104.953Z" transform="translate(-308.615 -70.291)"/><path class="a" d="M337.484,23.42,324.915,35.989a33,33,0,0,0-9.064-5.311l4.6-17.172A50.875,50.875,0,0,1,337.484,23.42Z" transform="translate(-252.51 -10.797)"/></svg>