<svg xmlns="http://www.w3.org/2000/svg" width="19.924" height="20.262" viewBox="0 0 19.924 20.262"><defs><style>.a{fill:#fff;}</style></defs><g transform="translate(0 0)"><path class="a" d="M20.326.1a.337.337,0,0,0-.478,0L18.6,1.351H10.734L.85,11.317A1.193,1.193,0,0,0,.85,13l6.911,6.911a1.192,1.192,0,0,0,1.689,0l9.625-9.885v-8.2L20.326.576A.338.338,0,0,0,20.326.1ZM11.353,10.466a.338.338,0,0,1,.478.478L9.442,13.332a.338.338,0,0,1-.478-.478ZM8.011,7.122a.349.349,0,0,1,.476,0,.341.341,0,0,1,.1.24.354.354,0,0,1-.1.24.348.348,0,0,1-.24.1.334.334,0,0,1-.338-.338A.336.336,0,0,1,8.011,7.122ZM3.472,12.475a.338.338,0,0,1-.239-.576L6.816,8.317a.338.338,0,1,1,.478.478L3.711,12.376A.335.335,0,0,1,3.472,12.475Zm2.151,1.333a.343.343,0,0,1-.24.1.335.335,0,0,1-.24-.1.338.338,0,0,1,0-.476.349.349,0,0,1,.476,0,.339.339,0,0,1,.1.24A.347.347,0,0,1,5.623,13.809Zm1.909,1.434-.478.478a.338.338,0,0,1-.478-.478l.478-.478a.338.338,0,0,1,.478.478Zm-.955-2.388a.338.338,0,0,1-.478-.478L9.681,8.795a.338.338,0,0,1,.478.478ZM7.91,14.048a.338.338,0,0,1,.577-.24.342.342,0,0,1,0,.48.346.346,0,0,1-.24.1.334.334,0,0,1-.338-.338Zm4.4-.239L8.726,17.391a.338.338,0,1,1-.478-.478l3.582-3.582a.338.338,0,0,1,.478.478ZM13.5,12.616a.342.342,0,0,1-.24.1.339.339,0,1,1,.24-.577.343.343,0,0,1,.1.24A.348.348,0,0,1,13.5,12.616Zm1.857-5.862a1.689,1.689,0,1,1,1.689-1.689A1.69,1.69,0,0,1,15.359,6.754Z" transform="translate(-0.501 0)"/></g></svg>