<svg xmlns="http://www.w3.org/2000/svg" width="17.061" height="20.035" viewBox="0 0 17.061 20.035"><defs><style>.a{fill:#fff;}</style></defs><g transform="translate(0)"><path class="a" d="M124.258,158.457a3.817,3.817,0,1,0,3.817,3.817A3.822,3.822,0,0,0,124.258,158.457Zm2.266,3.1-2.735,2.735a.588.588,0,0,1-.831,0l-1.045-1.045a.588.588,0,1,1,.831-.831l.629.629,2.319-2.319a.588.588,0,0,1,.831.831Zm0,0" transform="translate(-115.728 -152.256)"/><path class="a" d="M17.041,5.435V5.42c-.009-.192-.015-.4-.018-.623a2.123,2.123,0,0,0-2-2.08A8.24,8.24,0,0,1,9.415.353L9.4.341a1.282,1.282,0,0,0-1.743,0L7.647.353A8.241,8.241,0,0,1,2.039,2.717a2.123,2.123,0,0,0-2,2.08c0,.225-.009.429-.018.622v.036A21.713,21.713,0,0,0,.9,13.381a10.089,10.089,0,0,0,2.42,3.77,12.662,12.662,0,0,0,4.737,2.8,1.467,1.467,0,0,0,.194.053,1.434,1.434,0,0,0,.564,0,1.472,1.472,0,0,0,.195-.053,12.67,12.67,0,0,0,4.732-2.8,10.1,10.1,0,0,0,2.42-3.771A21.746,21.746,0,0,0,17.041,5.435ZM8.531,15.01a4.993,4.993,0,1,1,4.993-4.993A5,5,0,0,1,8.531,15.01Zm0,0" transform="translate(0 0.001)"/></g></svg>