<svg xmlns="http://www.w3.org/2000/svg" width="23.57" height="23.57" viewBox="0 0 23.57 23.57"><defs><style>.a{fill:#fff;}</style></defs><path class="a" d="M4.444,67.333H15.556V74H4.444Zm13.889,3.333A1.667,1.667,0,0,0,20,72.333v3.333a1.667,1.667,0,0,1-1.667,1.667H1.667A1.667,1.667,0,0,1,0,75.667V72.333a1.667,1.667,0,0,0,1.667-1.667A1.667,1.667,0,0,0,0,69V65.667A1.667,1.667,0,0,1,1.667,64H18.333A1.667,1.667,0,0,1,20,65.667V69A1.667,1.667,0,0,0,18.333,70.667Zm-1.667-3.611a.833.833,0,0,0-.833-.833H4.167a.833.833,0,0,0-.833.833v7.222a.833.833,0,0,0,.833.833H15.833a.833.833,0,0,0,.833-.833Z" transform="translate(-45.255 -31.113) rotate(-45)"/></svg>