<svg xmlns="http://www.w3.org/2000/svg" width="19.998" height="19.998" viewBox="0 0 19.998 19.998"><defs><style>.a{fill:#fff;}</style></defs><g transform="translate(0 4.183)"><path class="a" d="M13.736,107.124c-1.287.973-3.664,1.64-6.665,1.64s-5.506-.627-6.808-1.6A.165.165,0,0,0,0,107.3v13.269c0,1.17,2.9,2.333,7.07,2.333S14,121.743,14,120.573V107.258A.165.165,0,0,0,13.736,107.124Z" transform="translate(0 -107.091)"/></g><path class="a" d="M7,0C2.832,0,0,1.5,0,2.675S2.9,5.149,7.07,5.149,14,3.837,14,2.666,11.166,0,7,0Z"/><g transform="translate(15.331)"><path class="a" d="M397.032,0H392.7a.167.167,0,0,0-.167.167V1.5a.167.167,0,0,0,.167.167h.833a.333.333,0,1,1,0,.667H392.7a.167.167,0,0,0-.167.167v1a.167.167,0,0,0,.167.167h1.5a.333.333,0,0,1,0,.667h-1.5a.167.167,0,0,0-.167.167v1a.167.167,0,0,0,.167.167h.833a.333.333,0,1,1,0,.667H392.7a.167.167,0,0,0-.167.167v1a.167.167,0,0,0,.167.167h1.5a.333.333,0,0,1,0,.667h-1.5a.167.167,0,0,0-.167.167v1a.167.167,0,0,0,.167.167h.833a.333.333,0,1,1,0,.667H392.7a.167.167,0,0,0-.167.167v1a.167.167,0,0,0,.167.167h1.5a.333.333,0,0,1,0,.667h-1.5a.167.167,0,0,0-.167.167v1a.167.167,0,0,0,.167.167h.833a.333.333,0,1,1,0,.667H392.7a.167.167,0,0,0-.167.167v1a.167.167,0,0,0,.167.167h1.5a.333.333,0,0,1,0,.667h-1.5a.167.167,0,0,0-.167.167v1a.167.167,0,0,0,.167.167h.833a.333.333,0,1,1,0,.667H392.7a.167.167,0,0,0-.167.167v1.333A.167.167,0,0,0,392.7,20h4.333a.167.167,0,0,0,.167-.167V.167A.167.167,0,0,0,397.032,0Z" transform="translate(-392.533)"/></g></svg>